<svg xmlns="http://www.w3.org/2000/svg" viewBox="0 0 150 100"><defs><style>.cls-1{fill:#fff;}.cls-2{fill:#726658;}</style></defs><g id="Layer_2" data-name="Layer 2"><rect class="cls-1" width="150" height="100"/><path class="cls-2" d="M16.72,54.54c.44,2,1.74,3.11,4.15,3.11,2.69,0,3.72-1.34,3.72-2.94s-.74-2.69-4-3.49-4.45-1.78-4.45-3.9c0-1.93,1.41-3.74,4.56-3.74s4.59,2,4.78,3.76H24.34C24,45.77,23,44.63,20.66,44.63c-2.12,0-3.27,1-3.27,2.63s1,2.24,3.67,2.91c4.14,1,4.75,2.69,4.75,4.46,0,2.16-1.58,4-5,4-3.67,0-5-2.14-5.29-4.12Z"/><path class="cls-2" d="M28.92,53.37c0,2.71,1.38,4.38,3.4,4.38a3,3,0,0,0,3-2h1.07a4,4,0,0,1-4.13,3c-3.2,0-4.43-2.75-4.43-5.42,0-3,1.49-5.58,4.55-5.58,3.24,0,4.26,2.79,4.26,4.77,0,.29,0,.58,0,.86Zm6.65-.93c0-2.08-1.15-3.71-3.21-3.71S29.21,50.24,29,52.44Z"/><path class="cls-2" d="M39.23,50.85c0-1.77,0-2.52,0-2.86h1c0,.34,0,1,0,2.35a4,4,0,0,1,3.65-2.6v1.13A3.8,3.8,0,0,0,40.28,53v5.46H39.23Z"/><path class="cls-2" d="M45.8,50.85c0-1.77,0-2.52,0-2.86h1c0,.34,0,1,0,2.35a4,4,0,0,1,3.65-2.6v1.13A3.8,3.8,0,0,0,46.85,53v5.46H45.8Z"/><path class="cls-2" d="M53,48c2.12,6,3.05,8.48,3.4,9.62h0c.42-1.28,1.26-3.72,3.3-9.62h1.09L56.84,59.1c-1.11,3.11-1.86,3.8-3.75,3.8a7.43,7.43,0,0,1-1-.06V61.79a7.34,7.34,0,0,0,1,.06c1.51,0,2-.74,2.77-2.9l-4-11Z"/><path class="cls-2" d="M68.61,43.79h5.24c2.69,0,4.54,1.49,4.54,4.1s-1.83,4.2-4.68,4.2H69.76v6.4H68.61ZM69.76,51h4c2.37,0,3.36-1.26,3.36-3.11a2.94,2.94,0,0,0-3.27-3.09H69.76Z"/><path class="cls-2" d="M89.08,53.22c0,2.92-1.62,5.52-4.75,5.52-2.83,0-4.59-2.33-4.59-5.5,0-3,1.66-5.5,4.7-5.5C87.23,47.74,89.08,49.92,89.08,53.22Zm-8.23,0c0,2.5,1.34,4.51,3.57,4.51S88,55.89,88,53.24c0-2.48-1.26-4.51-3.59-4.51S80.85,50.72,80.85,53.24Z"/><path class="cls-2" d="M91.68,50.85c0-1.77,0-2.52,0-2.86h1c0,.34,0,1,0,2.35a4,4,0,0,1,3.66-2.6v1.13A3.8,3.8,0,0,0,92.73,53v5.46h-1Z"/><path class="cls-2" d="M97.57,48h2V44.72h1V48h2.5v1h-2.5V55.8c0,1.18.25,1.85,1.26,1.85a3.82,3.82,0,0,0,1.09-.13v.93a3.86,3.86,0,0,1-1.3.19c-1.35,0-2.1-.68-2.1-2.35V49h-2Z"/><path class="cls-2" d="M105.48,58.49V49h-1.81V48h1.81V46.5c0-1.76.51-3.69,2.86-3.69a4.2,4.2,0,0,1,1,.14v1a5.54,5.54,0,0,0-1.14-.13c-1.24,0-1.7.89-1.7,2.71V48h2.29v1h-2.29v9.51Z"/><path class="cls-2" d="M119,53.22c0,2.92-1.61,5.52-4.74,5.52-2.84,0-4.6-2.33-4.6-5.5,0-3,1.66-5.5,4.7-5.5C117.14,47.74,119,49.92,119,53.22Zm-8.23,0c0,2.5,1.35,4.51,3.57,4.51s3.55-1.86,3.55-4.51c0-2.48-1.26-4.51-3.59-4.51S110.75,50.72,110.75,53.24Z"/><path class="cls-2" d="M121.67,43h1v2h-1Zm0,5h1v10.5h-1Z"/><path class="cls-2" d="M126.17,58.49V43h1V58.49Z"/><path class="cls-2" d="M139.16,53.22c0,2.92-1.61,5.52-4.74,5.52-2.84,0-4.6-2.33-4.6-5.5,0-3,1.66-5.5,4.7-5.5C137.32,47.74,139.16,49.92,139.16,53.22Zm-8.23,0c0,2.5,1.35,4.51,3.57,4.51s3.55-1.86,3.55-4.51c0-2.48-1.26-4.51-3.59-4.51S130.93,50.72,130.93,53.24Z"/></g></svg>